<?xml version="1.0" encoding="UTF-8"?>
<!-- Generated by Pixelmator Pro 3.6.14 -->
<svg width="204" height="181" viewBox="0 0 204 181" xmlns="http://www.w3.org/2000/svg">
    <path id="svg-layer-3-copy" fill="#3b82f6" stroke="none" d="M 85.517441 6.806473 L 87.632965 6.787598 C 89.929321 6.77005 92.225677 6.757172 94.522034 6.748962 L 96.915382 6.736771 C 101.095123 6.717911 105.275818 6.704071 109.457451 6.695251 C 113.750427 6.684906 118.04438 6.651901 122.338333 6.615219 C 125.660835 6.589798 128.984314 6.582199 132.30777 6.579453 C 133.889572 6.574387 135.471054 6.563385 137.052231 6.546432 C 149.346512 6.417404 160.000168 7.562057 169.362366 16.394455 C 171.563309 19.708893 171.783859 20.971313 171.239502 24.87355 C 167.661682 29.243057 163.653061 31.280029 158.627975 33.52977 L 156.528397 34.506729 C 150.733719 37.16922 145.587555 39.238159 139.116119 39.245636 L 135.667847 39.265427 L 131.969894 39.262543 L 128.118011 39.290833 C 122.694351 39.333542 117.270378 39.358032 111.846085 39.364319 C 108.516052 39.369034 105.186958 39.392609 101.857864 39.425629 C 100.004204 39.438736 98.150528 39.432175 96.295929 39.425629 C 81.222557 39.586624 66.822128 43.630219 55.582794 54.175499 C 45.117786 65.421631 42.191341 78.685753 42.388432 93.511879 C 42.60994 99.626251 44.050629 104.979393 46.410191 110.606712 L 47.297142 112.759499 C 49.505589 117.593506 53.602097 125.005554 58 128 C 58 128 62.715904 131.123291 64.477592 132.124756 C 80.339355 141.116455 97.193192 143.616776 115.101967 139.223694 C 132.950684 133.592575 143.662552 121.823631 153.821579 106.801422 C 159.691391 98.132103 165.983521 90.855148 174.113403 84.285706 L 175.722092 82.970505 C 180.385818 79.333923 185.288895 76.534813 191.359558 76.867409 L 193.765091 77.632423 C 199.05954 88.261436 193.733185 106.695045 190.27832 117.397537 C 182.659027 139.640121 166.984985 155.94545 146.135666 166.395508 C 135.036194 171.690125 123.259056 173.821289 111.009834 173.953186 L 108.858643 173.981491 C 78.886467 174.291306 54.006012 170.916718 31.393131 149.233749 L 29.644577 147.691528 C 15.600812 134.826813 8.340071 113.525429 7.074877 94.845024 L 6.990409 92.706383 L 6.876841 90.539459 C 6.248949 67.904129 14.621888 47.720032 29.66242 31.118912 C 43.992439 16.10141 64.731941 6.887436 85.516495 6.806473"/>
    <path id="svg-layer-19-copy" fill="#3b82f6" stroke="none" d="M 193 39 C 195.062988 40.625 195.062988 40.625 196 43 C 196.062988 46.5 196.062988 46.5 195 50 C 190.980011 53.12793 186.95401 54.911987 182.187988 56.625 C 169.065002 61.610962 156.993011 69.333008 146 78 L 143.285004 80.098022 C 133.890015 87.689941 125.515015 96.338013 117.049988 104.936035 L 115.488007 106.518066 C 114.064697 107.962769 112.643372 109.409424 111.223999 110.858032 C 107.43399 114.509033 104.154999 114.639038 99.016006 114.60498 C 93.266998 113.450928 89.873001 109.14502 86 105 C 84.773338 103.809975 83.544334 102.622643 82.313004 101.437988 C 78.719727 97.768555 75.279144 93.952637 72 90 L 69.5 87 C 67.776993 83.554932 67.565994 81.633057 68.246002 77.897949 C 69.824005 73.926025 73.264999 71.868042 77 70 C 82.757996 69.401001 87.048996 69.802002 92 73 L 94.121002 74.792969 L 96.436996 76.75 L 98.559006 78.671997 C 102.108994 80.603027 104.149994 80.036011 108 79 C 110.902008 77.207031 110.902008 77.207031 113.937988 74.812988 C 131.170013 61.790039 169.868011 33.603027 193 39"/>
</svg>
